{"title":"Wild Target 2010 DVDrip English Klam","uid":8071347,"size":1673557537,"categoryP":"video","categoryS":"movies","magnet":"?xt=urn:btih:29fa0a72d8f4be7221ae8179cd50b4d133e0a009&amp;dn=Wild+Target+2010+DVDrip+English+Klam&amp;tr=udp%3A%2F%2Ftracker.openbittorrent.com%3A80&amp;tr=udp%3A%2F%2Fopen.demonii.com%3A1337&amp;tr=udp%3A%2F%2Ftracker.coppersurfer.tk%3A6969&amp;tr=udp%3A%2F%2Fexodus.desync.com%3A6969","seeders":1,"leechers":0,"uploader":"Klambake","files":-1,"time":1359283607,"description":"With: Bill Nighy, Emily Blunt and Rupert Grint\n\nIn het eenzame leven van huurmoordenaar Victor Maynard duiken twee mensen op: Tony, een jongen, die de leerling van Victor wordt, en Rose, een mooie dievegge. Victor heeft de opdracht van een maffiabaas gekregen om haar te vermoorden, aangezien ze een gangster bedrogen zou hebben. Omstandigheden zorgen ervoor dat Victor dit niet doet, maar dan stapelen de problemen zich op. De maffiabaas stuurt extra mensen om haar te vermoorden. Victor besluit haar te helpen, maar al snel zitten ze ook achter hem aan.\n\nA hitman tries to retire but a beautiful thief may change his plans.\n &lt;a href=&quot;\nhttp://www.imdb.com/title/tt1235189&quot; rel=&quot;nofollow&quot; target=&quot;_NEW&quot;&gt;\nhttp://www.imdb.com/title/tt1235189&lt;/a&gt;\t\n\n------------------------ Dutch Friends ------------------------\n---------------------------------------------------------------\n- Bezoek ook eens mijn vrienden op: &lt;a href=&quot; http://www.Film-Test.nl&quot; rel=&quot;nofollow&quot; target=&quot;_NEW&quot;&gt; http://www.Film-Test.nl&lt;/a&gt; --\n----- voor mijn Nederlandse Sync. ondertitels ---- en meer ----\n------- http://www.Film-Test.nl ---- Over Films en meer -------\n---------------------------------------------------------------\n\nGeneral:\n\nComplete name                    : Wild TargetWild Target.avi\nFormat                           : AVI\nFormat/Info                      : Audio Video Interleave\nFile size                        : 1.56 GiB\nDuration                         : 1h 33mn\nOverall bit rate                 : 2 376 Kbps\n\nVideo:\n\nFormat                           : MPEG-4 Visual\nFormat profile                   : Simple@L3\nFormat settings, BVOP            : No\nFormat settings, QPel            : No\nFormat settings, GMC             : No warppoints\nFormat settings, Matrix          : Default (H.263)\nCodec ID                         : XVID\nCodec ID/Hint                    : XviD\nDuration                         : 1h 33mn\nBit rate                         : 1 917 Kbps\nWidth                            : 704 pixels\nHeight                           : 396 pixels\nDisplay aspect ratio             : 16:9\nFrame rate                       : 25.000 fps\nColor space                      : YUV\nChroma subsampling               : 4:2:0\nBit depth                        : 8 bits\nScan type                        : Progressive\nCompression mode                 : Lossy\nBits/(Pixel*Frame)               : 0.275\nStream size                      : 1.26 GiB (81%)\nWriting library                  : XviD 1.1.2 (UTC 2006-11-01)\n\nAudio:\n\nFormat                           : AC-3\nFormat/Info                      : Audio Coding 3\nMode extension                   : CM (complete main)\nCodec ID                         : 2000\nDuration                         : 1h 33mn\nBit rate mode                    : Constant\nBit rate                         : 448 Kbps\nChannel(s)                       : 6 channels\nChannel positions                : Front: L C R, Side: L R, LFE\nSampling rate                    : 48.0 KHz\nBit depth                        : 16 bits\nCompression mode                 : Lossy\nStream size                      : 301 MiB (19%)\nAlignment                        : Aligned on interleaves\nInterleave, duration             : 32 ms (0.80 video frame)\nInterleave, preload duration     : 96 ms","torrent":{"xt":"urn:btih:29fa0a72d8f4be7221ae8179cd50b4d133e0a009","amp;dn":"Wild+Target+2010+DVDrip+English+Klam","amp;tr":["udp%3A%2F%2Ftracker.openbittorrent.com%3A80","udp%3A%2F%2Fopen.demonii.com%3A1337","udp%3A%2F%2Ftracker.coppersurfer.tk%3A6969","udp%3A%2F%2Fexodus.desync.com%3A6969"],"infoHash":"29fa0a72d8f4be7221ae8179cd50b4d133e0a009","infoHashBuffer":{"type":"Buffer","data":[41,250,10,114,216,244,190,114,33,174,129,121,205,80,180,209,51,224,160,9]},"announce":[],"urlList":[]}}